M48
; DRILL file KiCad 10.0.5 date 2026-08-30T14:42:27
; FORMAT={-:-/ absolute / inch / decimal}
; #@! TF.CreationDate,2026-08-30T14:42:27-04:00
; #@! TF.GenerationSoftware,Kicad,Pcbnew,10.0.5
; #@! TF.FileFunction,Plated,1,2,PTH
FMAT,2
INCH
; #@! TA.AperFunction,Plated,PTH,ViaDrill
T1C0.0118
; #@! TA.AperFunction,Plated,PTH,ComponentDrill
T2C0.0236
; #@! TA.AperFunction,Plated,PTH,ComponentDrill
T3C0.0295
; #@! TA.AperFunction,Plated,PTH,ComponentDrill
T4C0.0315
; #@! TA.AperFunction,Plated,PTH,ComponentDrill
T5C0.0354
; #@! TA.AperFunction,Plated,PTH,ComponentDrill
T6C0.0394
; #@! TA.AperFunction,Plated,PTH,ComponentDrill
T7C0.0433
; #@! TA.AperFunction,Plated,PTH,ComponentDrill
T8C0.0866
%
G90
G05
T1
X0.9252Y-1.1024
X0.9843Y-1.0236
X1.2795Y-1.5157
X1.2854Y-1.4779
X1.32Y-0.9432
X1.3583Y-0.9449
X1.3627Y-1.1483
X1.3842Y-1.1192
X1.3976Y-1.4902
X1.4173Y-0.2559
X1.4173Y-0.2953
X1.4173Y-0.3346
X1.4173Y-0.374
X1.4173Y-0.4134
X1.4173Y-0.4528
X1.4173Y-0.4921
X1.4173Y-0.5315
X1.4173Y-0.5709
X1.4173Y-0.6102
X1.4173Y-0.6496
X1.4173Y-0.689
X1.4173Y-0.7283
X1.4173Y-0.7677
X1.4173Y-0.8071
X1.4173Y-0.8465
X1.4173Y-0.8858
X1.4173Y-0.9252
X1.437Y-0.1969
X1.4567Y-0.9646
X1.4764Y-1.4764
X1.4961Y-1.063
X1.5157Y-0.1969
X1.5945Y-0.2165
X1.5945Y-1.122
X1.6339Y-1.2008
X1.6929Y-0.2165
X1.7126Y-1.2205
X1.811Y-1.2402
X1.8701Y-0.1969
X1.9291Y-1.2402
X1.9685Y-0.2756
X2.0079Y-1.2402
X2.0669Y-0.315
X2.0669Y-1.2402
X2.1457Y-1.2402
X2.1654Y-0.315
X2.185Y-1.2795
X2.2047Y-1.3583
X2.2441Y-0.315
X2.3228Y-0.374
X2.3425Y-0.4921
X2.3425Y-1.3976
X2.3819Y-0.5512
X2.3819Y-0.9252
X2.4016Y-0.6102
X2.4016Y-0.8465
X2.4016Y-1.0433
X2.4016Y-1.122
X2.4016Y-1.1811
X2.4016Y-1.2992
X2.4016Y-1.378
X2.4213Y-0.6693
X2.4213Y-0.748
X3.0118Y-0.315
X3.0315Y-0.2362
T2
X2.0374Y-1.555
X2.0374Y-1.638
T3
X0.3543Y-0.8661
X0.3543Y-0.9449
X3.1496Y-0.4331
X3.1996Y-0.4331
X3.2496Y-0.4331
X3.3974Y-1.506
X3.4474Y-1.506
X3.4974Y-1.506
T4
X0.0673Y-0.7153
X0.0673Y-0.8153
X0.0673Y-0.9153
X0.2315Y-0.2512
X0.2315Y-0.3512
X0.2315Y-0.4512
X0.2315Y-0.5512
X0.5315Y-0.2512
X0.5315Y-0.3512
X0.5315Y-0.4512
X0.5315Y-0.5512
X0.6299Y-0.4331
X0.8268Y-0.1575
X0.8268Y-0.4331
X1.0236Y-0.1575
X1.2748Y-0.2874
X1.2748Y-0.3874
X1.2748Y-0.4874
X1.2748Y-0.5874
X1.2748Y-0.6874
X1.2748Y-0.7874
X1.2748Y-0.8874
X1.2748Y-0.9874
X1.437Y-1.4173
X1.437Y-1.8173
X1.4988Y-1.1264
X1.5748Y-0.2874
X1.5748Y-0.3874
X1.5748Y-0.4874
X1.5748Y-0.5874
X1.5748Y-0.6874
X1.5748Y-0.7874
X1.5748Y-0.8874
X1.5748Y-0.9874
X1.6339Y-1.4339
X1.6339Y-1.8339
X1.6884Y-0.7769
X1.6884Y-0.9737
X1.6957Y-0.3193
X1.6957Y-0.5161
X1.6957Y-1.1264
X1.7955Y-0.2337
X1.7955Y-0.4306
X1.8063Y-0.5386
X1.8063Y-0.8386
X1.8622Y-1.0027
X1.873Y-1.812
X1.9063Y-0.5386
X1.9063Y-0.8386
X1.9622Y-1.0027
X2.0045Y-0.3636
X2.0063Y-0.5386
X2.0063Y-0.8386
X2.0622Y-1.0027
X2.1045Y-0.3636
X2.1063Y-0.5386
X2.1063Y-0.8386
X2.2045Y-0.3636
X2.273Y-1.812
X3.1163Y-0.8893
X3.1171Y-1.0336
X3.1419Y-1.4419
X3.1419Y-1.8419
X3.2612Y-1.4438
X3.2612Y-1.8438
X3.3858Y-0.1181
X3.3858Y-0.5181
X3.5163Y-0.8893
X3.5171Y-1.0336
X3.5218Y-0.109
X3.5218Y-0.509
T5
X2.308Y-1.2188
X2.308Y-1.3188
X2.3228Y-0.66
X2.3228Y-0.76
X3.5059Y-1.1977
X3.5059Y-1.2977
X3.5185Y-0.639
X3.5185Y-0.739
T6
X0.0591Y-1.1646
X0.0591Y-1.7646
X0.1591Y-1.1646
X0.1591Y-1.7646
X0.2591Y-1.1646
X0.2591Y-1.7646
X0.3591Y-1.1646
X0.3591Y-1.7646
X0.4591Y-1.1646
X0.4591Y-1.7646
X0.5591Y-1.1646
X0.5591Y-1.7646
X0.6591Y-1.1646
X0.6591Y-1.7646
X0.7591Y-1.1646
X0.7591Y-1.7646
X0.8591Y-1.1646
X0.8591Y-1.7646
X0.9591Y-1.1646
X0.9591Y-1.7646
X1.0591Y-1.1646
X1.0591Y-1.7646
X1.1591Y-1.1646
X1.1591Y-1.7646
X1.2591Y-1.1646
X1.2591Y-1.7646
T7
X0.663Y-0.2953
X0.663Y-0.5512
X0.689Y-0.7677
X0.689Y-0.9449
X0.9449Y-0.7677
X0.9449Y-0.9449
X1.063Y-0.2953
X1.063Y-0.5512
T8
X0.1092Y-1.9089
X0.1181Y-0.1181
X2.2441Y-0.1181
X2.7756Y-1.752
X3.2087Y-0.1181
X3.5039Y-1.8701
M30
