%TF.GenerationSoftware,KiCad,Pcbnew,10.0.5*%
%TF.CreationDate,2026-08-30T14:42:27-04:00*%
%TF.ProjectId,phrog-mainboard,7068726f-672d-46d6-9169-6e626f617264,rev?*%
%TF.SameCoordinates,Original*%
%TF.FileFunction,Soldermask,Top*%
%TF.FilePolarity,Negative*%
%FSLAX46Y46*%
G04 Gerber Fmt 4.6, Leading zero omitted, Abs format (unit mm)*
G04 Created by KiCad (PCBNEW 10.0.5) date 2026-08-30 14:42:27*
%MOMM*%
%LPD*%
G01*
G04 APERTURE LIST*
G04 Aperture macros list*
%AMRoundRect*
0 Rectangle with rounded corners*
0 $1 Rounding radius*
0 $2 $3 $4 $5 $6 $7 $8 $9 X,Y pos of 4 corners*
0 Add a 4 corners polygon primitive as box body*
4,1,4,$2,$3,$4,$5,$6,$7,$8,$9,$2,$3,0*
0 Add four circle primitives for the rounded corners*
1,1,$1+$1,$2,$3*
1,1,$1+$1,$4,$5*
1,1,$1+$1,$6,$7*
1,1,$1+$1,$8,$9*
0 Add four rect primitives between the rounded corners*
20,1,$1+$1,$2,$3,$4,$5,0*
20,1,$1+$1,$4,$5,$6,$7,0*
20,1,$1+$1,$6,$7,$8,$9,0*
20,1,$1+$1,$8,$9,$2,$3,0*%
G04 Aperture macros list end*
%ADD10C,1.440000*%
%ADD11C,3.800000*%
%ADD12C,1.600000*%
%ADD13R,1.500000X1.500000*%
%ADD14RoundRect,0.250000X1.750000X-0.550000X1.750000X0.550000X-1.750000X0.550000X-1.750000X-0.550000X0*%
%ADD15R,1.050000X1.500000*%
%ADD16O,1.050000X1.500000*%
%ADD17C,2.000000*%
%ADD18RoundRect,0.250000X0.550000X-0.950000X0.550000X0.950000X-0.550000X0.950000X-0.550000X-0.950000X0*%
%ADD19O,1.600000X2.400000*%
%ADD20RoundRect,0.249999X0.850001X0.850001X-0.850001X0.850001X-0.850001X-0.850001X0.850001X-0.850001X0*%
%ADD21C,2.200000*%
%ADD22C,1.800000*%
%ADD23RoundRect,0.250000X0.950000X0.550000X-0.950000X0.550000X-0.950000X-0.550000X0.950000X-0.550000X0*%
%ADD24O,2.400000X1.600000*%
%ADD25RoundRect,0.250000X0.625000X-0.350000X0.625000X0.350000X-0.625000X0.350000X-0.625000X-0.350000X0*%
%ADD26O,1.750000X1.200000*%
%ADD27R,1.800000X1.800000*%
G04 APERTURE END LIST*
D10*
%TO.C,RV1*%
X52380000Y-25469626D03*
X49840000Y-25469626D03*
X47300000Y-25469626D03*
%TD*%
D11*
%TO.C,REF\u002A\u002A*%
X89000000Y-47500000D03*
%TD*%
D12*
%TO.C,R6*%
X47575000Y-46025000D03*
X57735000Y-46025000D03*
%TD*%
%TO.C,C2*%
X43070000Y-28610000D03*
X38070000Y-28610000D03*
%TD*%
D13*
%TO.C,SW3*%
X1709517Y-20707713D03*
D12*
X1709517Y-18167713D03*
X1709517Y-23247713D03*
%TD*%
D11*
%TO.C,REF\u002A\u002A*%
X2772485Y-48485888D03*
%TD*%
%TO.C,REF\u002A\u002A*%
X57000000Y-3000000D03*
%TD*%
%TO.C,REF\u002A\u002A*%
X3000000Y-3000000D03*
%TD*%
D14*
%TO.C,TH1*%
X53249828Y-41605962D03*
X53249828Y-39498008D03*
%TD*%
D11*
%TO.C,REF\u002A\u002A*%
X81500000Y-3000000D03*
%TD*%
D12*
%TO.C,C1*%
X43070000Y-13110000D03*
X43070000Y-8110000D03*
%TD*%
D15*
%TO.C,Q4*%
X86293795Y-38253119D03*
D16*
X87563795Y-38253119D03*
X88833795Y-38253119D03*
%TD*%
D12*
%TO.C,R2*%
X41500000Y-36420000D03*
X41500000Y-46580000D03*
%TD*%
D17*
%TO.C,SW1*%
X17500000Y-19500000D03*
X24000000Y-19500000D03*
X17500000Y-24000000D03*
X24000000Y-24000000D03*
%TD*%
D12*
%TO.C,C5*%
X26000000Y-4000000D03*
X21000000Y-4000000D03*
%TD*%
%TO.C,R8*%
X89314878Y-22588179D03*
X79154878Y-22588179D03*
%TD*%
%TO.C,C6*%
X45606091Y-10937217D03*
X45606091Y-5937217D03*
%TD*%
D18*
%TO.C,U2*%
X45880000Y-21300000D03*
D19*
X48420000Y-21300000D03*
X50960000Y-21300000D03*
X53500000Y-21300000D03*
X53500000Y-13680000D03*
X50960000Y-13680000D03*
X48420000Y-13680000D03*
X45880000Y-13680000D03*
%TD*%
D12*
%TO.C,R10*%
X86000000Y-3000000D03*
X86000000Y-13160000D03*
%TD*%
%TO.C,C4*%
X21000000Y-11000000D03*
X16000000Y-11000000D03*
%TD*%
%TO.C,C3*%
X42885624Y-24732287D03*
X42885624Y-19732287D03*
%TD*%
%TO.C,R13*%
X82833795Y-36673119D03*
X82833795Y-46833119D03*
%TD*%
D15*
%TO.C,Q3*%
X80000000Y-11000000D03*
D16*
X81270000Y-11000000D03*
X82540000Y-11000000D03*
%TD*%
D12*
%TO.C,R9*%
X89333795Y-26253119D03*
X79173795Y-26253119D03*
%TD*%
%TO.C,R1*%
X36500000Y-36000000D03*
X36500000Y-46160000D03*
%TD*%
D20*
%TO.C,D1*%
X27000000Y-14000000D03*
D21*
X16840000Y-14000000D03*
%TD*%
D11*
%TO.C,REF\u002A\u002A*%
X70500000Y-44500000D03*
%TD*%
D22*
%TO.C,U1*%
X1500000Y-44820000D03*
X4040000Y-44820000D03*
X6580000Y-44820000D03*
X9120000Y-44820000D03*
X11660000Y-44820000D03*
X14200000Y-44820000D03*
X16740000Y-44820000D03*
X19280000Y-44820000D03*
X21820000Y-44820000D03*
X24360000Y-44820000D03*
X26900000Y-44820000D03*
X29440000Y-44820000D03*
X31980000Y-44820000D03*
X31980000Y-29580000D03*
X29440000Y-29580000D03*
X26900000Y-29580000D03*
X24360000Y-29580000D03*
X21820000Y-29580000D03*
X19280000Y-29580000D03*
X16740000Y-29580000D03*
X14200000Y-29580000D03*
X11660000Y-29580000D03*
X9120000Y-29580000D03*
X6580000Y-29580000D03*
X4040000Y-29580000D03*
X1500000Y-29580000D03*
%TD*%
D12*
%TO.C,R12*%
X79804737Y-46784746D03*
X79804737Y-36624746D03*
%TD*%
D23*
%TO.C,U3*%
X40000000Y-25080000D03*
D24*
X40000000Y-22540000D03*
X40000000Y-20000000D03*
X40000000Y-17460000D03*
X40000000Y-14920000D03*
X40000000Y-12380000D03*
X40000000Y-9840000D03*
X40000000Y-7300000D03*
X32380000Y-7300000D03*
X32380000Y-9840000D03*
X32380000Y-12380000D03*
X32380000Y-14920000D03*
X32380000Y-17460000D03*
X32380000Y-20000000D03*
X32380000Y-22540000D03*
X32380000Y-25080000D03*
%TD*%
D10*
%TO.C,RV2*%
X55995000Y-9235000D03*
X53455000Y-9235000D03*
X50915000Y-9235000D03*
%TD*%
D25*
%TO.C,J1*%
X9000000Y-24000000D03*
D26*
X9000000Y-22000000D03*
%TD*%
D20*
%TO.C,D4*%
X27000000Y-7500000D03*
D21*
X16840000Y-7500000D03*
%TD*%
D12*
%TO.C,R11*%
X89454678Y-12928610D03*
X89454678Y-2768610D03*
%TD*%
D23*
%TO.C,U4*%
X13500000Y-14000000D03*
D24*
X13500000Y-11460000D03*
X13500000Y-8920000D03*
X13500000Y-6380000D03*
X5880000Y-6380000D03*
X5880000Y-8920000D03*
X5880000Y-11460000D03*
X5880000Y-14000000D03*
%TD*%
D27*
%TO.C,PD_Green1*%
X59000000Y-19305000D03*
D22*
X59000000Y-16765000D03*
%TD*%
D27*
%TO.C,D2*%
X89370000Y-18770000D03*
D22*
X89370000Y-16230000D03*
%TD*%
D27*
%TO.C,D3*%
X89048596Y-32962386D03*
D22*
X89048596Y-30422386D03*
%TD*%
D27*
%TO.C,PD_Blue1*%
X58624143Y-33497386D03*
D22*
X58624143Y-30957386D03*
%TD*%
M02*
